:SAMPLES-PER-SECOND 30
:FULLY-SPECIFIED
:DEGREES
264
root  12.7842 40.6069 10.3916 -92.1233 -80.6267 94.4976
RightUpLeg  -38.9463 -5.47023 -6.71166
RightLeg  35.5455 -17.7874 -13.5041
RightFoot  -16.8756 0.402249 10.6389
RightToes  1.16414e-010 0 -3.6325e-017
Spine  36.8003 -1.20587 9.29969
Spine1  9.63194 4.54792 -9.58218
HEad  -18.1865 -6.22737 -24.0604
LeftShoulder1  -0.106931 0.0213764 12.9883
LeftArm  -11.4946 -53.5649 -4.28997
LeftForeArm  64.5448 -74.8799 -34.4771
LeftHand  -1.07142 18.7341 -7.94603
RightShoulder  2.24983 7.18983 14.1729
RightArm  -11.1393 -10.2151 53.9509
RightForeArm  -15.8906 44.9708 12.1159
RightHand  -0.974449 0.797776 -20.2014
LeftUpLeg  -17.2835 -8.4354 12.6745
LeftLeg  29.6795 0.82864 0.849119
LeftFoot  27.9696 5.08512 -14.6511
LeftToes  7.09373e-011 9.9627e-011 8.96859e-012
265
root  13.072 39.0485 10.9066 -107.38 -78.1309 111.714
RightUpLeg  -43.0999 -4.43067 -10.2982
RightLeg  26.0966 -18.3121 -9.71492
RightFoot  -15.3118 0.244972 10.1048
RightToes  1.16414e-010 0 -3.6325e-017
Spine  36.7027 -0.635794 9.81658
Spine1  12.7612 5.62183 -8.49968
HEad  -15.8261 -4.69071 -18.8711
LeftShoulder1  0.056629 -3.81306 9.02574
LeftArm  13.3316 -40.7103 -26.7977
LeftForeArm  58.623 -70.4424 -25.5615
LeftHand  -1.77979 21.2983 -11.6536
RightShoulder  2.05455 6.93063 12.7313
RightArm  -13.3007 17.3557 51.6063
RightForeArm  -39.2464 36.0105 9.97504
RightHand  -1.21991 5.69443 -12.2806
LeftUpLeg  -17.0499 -14.0518 11.4984
LeftLeg  29.9973 3.27625 2.4183
LeftFoot  18.9547 5.83049 -22.2509
LeftToes  7.09373e-011 9.9627e-011 8.96859e-012
266
root  13.234 37.1082 11.376 -120.757 -73.7254 125.171
RightUpLeg  -48.2486 -5.1117 -12.5172
RightLeg  26.7685 -14.9367 -8.23261
RightFoot  -13.3574 0.0891846 10.3158
RightToes  1.16414e-010 0 -3.6325e-017
Spine  39.2546 0.0450296 8.97823
Spine1  14.9686 6.57324 -7.10892
HEad  -15.5184 -2.3029 -9.8098
LeftShoulder1  0.52857 -7.15262 3.57834
LeftArm  27.0729 -22.1881 -38.9608
LeftForeArm  50.0487 -59.2851 -14.5918
LeftHand  -1.56289 21.7612 -9.65167
RightShoulder  2.00361 8.31375 9.99769
RightArm  -18.9833 43.6096 48.2452
RightForeArm  -58.2318 28.8697 8.41334
RightHand  -0.462239 3.3795 -6.72468
LeftUpLeg  -14.0335 -16.7661 8.29838
LeftLeg  32.5234 6.69034 4.93472
LeftFoot  1.75714 3.85941 -32.6894
LeftToes  7.09373e-011 9.9627e-011 8.96859e-012
267
root  13.4458 35.2335 11.5325 -130.316 -70.7051 132.098
RightUpLeg  -51.1492 -6.82132 -11.3893
RightLeg  33.0228 -13.5957 -9.5955
RightFoot  -10.1312 -0.156235 9.01118
RightToes  1.16414e-010 0 -3.6325e-017
Spine  46.7223 -0.124512 10.5123
Spine1  15.8576 7.72918 -5.39052
HEad  -19.9366 -2.06248 -0.0545893
LeftShoulder1  1.06875 -5.06928 -4.44002
LeftArm  38.514 -10.6283 -44.6367
LeftForeArm  41.7875 -45.6068 -8.32598
LeftHand  -0.869561 19.4472 -6.07966
RightShoulder  0.86093 4.50007 -0.40919
RightArm  -31.7803 65.9435 48.2117
RightForeArm  -58.9789 24.3522 7.26346
RightHand  -1.57696 3.86478 -18.7641
LeftUpLeg  -8.25281 -16.1835 6.18116
LeftLeg  34.5159 6.74832 5.31587
LeftFoot  -16.7551 -1.49634 -35.1514
LeftToes  7.09373e-011 9.9627e-011 8.96859e-012
268
root  13.7619 33.7102 11.1125 -129.155 -68.674 130.973
RightUpLeg  -56.33 -10.2579 -9.31698
RightLeg  38.9193 -13.659 -11.7973
RightFoot  -5.36924 -0.304734 5.30504
RightToes  1.16414e-010 0 -3.6325e-017
Spine  53.832 -1.02846 13.0107
Spine1  15.2419 9.49377 -5.45657
HEad  -29.0557 -6.07783 8.301
LeftShoulder1  1.53637 -5.09974 -10.5795
LeftArm  44.6822 1.30721 -44.7085
LeftForeArm  35.3627 -37.7086 -6.45457
LeftHand  -0.766511 17.7721 -6.01448
RightShoulder  -0.0484047 -5.91423 -12.6524
RightArm  -45.312 84.2477 47.434
RightForeArm  -53.1769 21.5158 5.034
RightHand  -3.05658 7.43576 -27.9274
LeftUpLeg  -7.54543 -12.415 6.62874
LeftLeg  34.9656 1.31457 1.40872
LeftFoot  -28.6633 -4.8739 -32.1458
LeftToes  7.09373e-011 9.9627e-011 8.96859e-012
269
root  14.085 32.8167 9.9572 -121.83 -69.489 126.598
RightUpLeg  -62.2645 -12.7883 -5.64252
RightLeg  41.5768 -14.485 -13.6249
RightFoot  -0.886681 -0.0958231 0.944098
RightToes  1.16414e-010 0 -3.6325e-017
Spine  59.0979 -2.30889 17.0276
Spine1  12.8008 11.601 -5.53189
HEad  -37.2962 -13.4523 15.371
LeftShoulder1  1.96937 -5.60237 -14.7703
LeftArm  47.5213 11.3127 -43.1397
LeftForeArm  29.7025 -33.2198 -5.64977
LeftHand  -0.741538 17.2067 -6.07436
RightShoulder  0.0686505 -5.02335 -14.5291
RightArm  -129.15 71.3485 -54.1614
RightForeArm  -66.0525 16.5042 -0.897934
RightHand  -2.08381 4.80719 -23.0131
LeftUpLeg  -11.7094 -7.2545 11.1865
LeftLeg  34.5808 -7.31983 -5.08782
LeftFoot  -30.0434 -5.27777 -32.4367
LeftToes  7.09373e-011 9.9627e-011 8.96859e-012
270
root  14.2661 32.0752 8.27377 -110.439 -69.8199 120.914
RightUpLeg  -70.3031 -12.2104 -3.16005
RightLeg  44.0715 -15.4707 -15.7307
RightFoot  1.34112 0.26747 -2.38261
RightToes  1.16414e-010 0 -3.6325e-017
Spine  60.2219 -0.564723 18.2096
Spine1  8.68827 13.6721 -3.95428
HEad  -39.4598 -21.2577 20.6809
LeftShoulder1  2.30208 -6.47911 -16.3541
LeftArm  49.1099 20.7706 -42.5454
LeftForeArm  24.6257 -29.6705 -5.08688
LeftHand  -0.48968 15.6804 -4.35473
RightShoulder  0.0617894 -4.58961 -15.5699
RightArm  -113.131 57.28 -57.7627
RightForeArm  -82.4876 11.88 -5.44469
RightHand  -0.711023 -0.290654 -16.8684
LeftUpLeg  -20.0336 -2.4746 14.9243
LeftLeg  36.9245 -8.75556 -6.59235
LeftFoot  -24.8814 -3.87706 -32.8395
LeftToes  7.09373e-011 9.9627e-011 8.96859e-012
271
root  14.2901 31.4172 6.47082 -100.23 -69.4975 114.713
RightUpLeg  -76.0368 -11.2298 -1.72598
RightLeg  47.3314 -16.2097 -18.2556
RightFoot  0.404102 0.511871 -4.98752
RightToes  1.16414e-010 0 -3.6325e-017
Spine  59.5711 1.94477 16.9828
Spine1  5.59745 14.4089 -1.46344
HEad  -36.7008 -27.3096 23.1163
LeftShoulder1  2.56067 -7.69737 -16.1302
LeftArm  51.0944 30.6308 -43.0128
LeftForeArm  19.173 -26.5251 -4.63925
LeftHand  -0.300222 13.3773 -3.18776
RightShoulder  0.0574402 -4.59366 -15.2088
RightArm  -105.366 48.9451 -58.424
RightForeArm  -89.0185 7.95017 -8.53227
RightHand  -0.823259 0.00389191 -17.747
LeftUpLeg  -28.2115 -1.32382 15.743
LeftLeg  43.8562 -0.510233 0.161308
LeftFoot  -20.4179 -1.97702 -25.9149
LeftToes  7.09373e-011 9.9627e-011 8.96859e-012
272
root  14.3446 30.9676 4.78619 -94.9056 -69.8104 109.811
RightUpLeg  -77.3352 -10.8577 0.914014
RightLeg  49.7657 -16.86 -20.4614
RightFoot  -1.95008 0.603191 -7.48358
RightToes  1.16414e-010 0 -3.6325e-017
Spine  59.5121 2.58226 15.7338
Spine1  5.1873 13.8813 0.20061
HEad  -34.513 -31.5887 23.5363
LeftShoulder1  2.79538 -8.83181 -15.8988
LeftArm  54.0287 39.7019 -43.7985
LeftForeArm  13.449 -23.6399 -4.57901
LeftHand  -0.24652 12.0619 -3.01493
RightShoulder  0.0820089 -5.32739 -14.5025
RightArm  -106.375 44.9784 -57.4537
RightForeArm  -91.5965 4.98687 -12.0879
RightHand  -0.941602 1.82147 -15.3081
LeftUpLeg  -34.4933 -0.870783 14.0051
LeftLeg  56.6666 6.06818 10.3897
LeftFoot  -18.9127 -0.899981 -15.517
LeftToes  7.09373e-011 9.9627e-011 8.96859e-012
